<mxfile host="app.diagrams.net" modified="2020-08-09T23:31:29.289Z" agent="5.0 (Windows NT 10.0; Win64; x64) AppleWebKit/537.36 (KHTML, like Gecko) Chrome/83.0.4103.116 YaBrowser/20.7.3.100 Yowser/2.5 Safari/537.36" etag="jXrGJ6rsW-9itMiBWjdt" version="13.6.2" type="github">
  <diagram id="_Ujl76xsbhpJLxhgEZkL" name="Page-1">
    <mxGraphModel dx="1229" dy="789" grid="1" gridSize="10" guides="1" tooltips="1" connect="1" arrows="1" fold="1" page="1" pageScale="1" pageWidth="827" pageHeight="1169" math="0" shadow="0">
      <root>
        <mxCell id="0" />
        <mxCell id="1" parent="0" />
        <mxCell id="PRfZIbXaIdRjIJlZ7YdW-1" value="Старт&lt;br&gt;" style="strokeWidth=2;html=1;shape=mxgraph.flowchart.start_1;whiteSpace=wrap;" parent="1" vertex="1">
          <mxGeometry x="340" y="30" width="100" height="60" as="geometry" />
        </mxCell>
        <mxCell id="PRfZIbXaIdRjIJlZ7YdW-3" value="Цикл пока переменная&lt;br&gt;&quot;требуется считать следующий символ&quot;&lt;br&gt;равна ДА&amp;nbsp;&amp;nbsp;" style="strokeWidth=2;html=1;shape=mxgraph.flowchart.loop_limit;whiteSpace=wrap;" parent="1" vertex="1">
          <mxGeometry x="340" y="1010" width="180" height="100" as="geometry" />
        </mxCell>
        <mxCell id="PRfZIbXaIdRjIJlZ7YdW-6" value="Разность двух переменных переменная &quot;емкость хранилища&quot; и&amp;nbsp;переменная&lt;br&gt;&amp;nbsp;&quot;количество хранимых символов&quot; меньше 2" style="rhombus;whiteSpace=wrap;html=1;" parent="1" vertex="1">
          <mxGeometry x="315" y="1150" width="230" height="160" as="geometry" />
        </mxCell>
        <mxCell id="PRfZIbXaIdRjIJlZ7YdW-12" value="" style="endArrow=classic;html=1;exitX=0.5;exitY=1;exitDx=0;exitDy=0;exitPerimeter=0;entryX=0.5;entryY=0;entryDx=0;entryDy=0;" parent="1" source="PRfZIbXaIdRjIJlZ7YdW-3" target="PRfZIbXaIdRjIJlZ7YdW-6" edge="1">
          <mxGeometry width="50" height="50" relative="1" as="geometry">
            <mxPoint x="360" y="1280" as="sourcePoint" />
            <mxPoint x="410" y="1230" as="targetPoint" />
          </mxGeometry>
        </mxCell>
        <mxCell id="PRfZIbXaIdRjIJlZ7YdW-13" value="Вызвать функцию realloc с параметрами:&lt;br&gt;переменную &quot;емкость хранилища&quot; *2,&lt;br&gt;размер char" style="shape=process;whiteSpace=wrap;html=1;backgroundOutline=1;" parent="1" vertex="1">
          <mxGeometry x="590" y="1310" width="130" height="110" as="geometry" />
        </mxCell>
        <mxCell id="PRfZIbXaIdRjIJlZ7YdW-15" value="" style="edgeStyle=segmentEdgeStyle;endArrow=classic;html=1;exitX=1;exitY=0.5;exitDx=0;exitDy=0;" parent="1" source="PRfZIbXaIdRjIJlZ7YdW-6" target="PRfZIbXaIdRjIJlZ7YdW-13" edge="1">
          <mxGeometry width="50" height="50" relative="1" as="geometry">
            <mxPoint x="360" y="1280" as="sourcePoint" />
            <mxPoint x="670" y="1110" as="targetPoint" />
          </mxGeometry>
        </mxCell>
        <mxCell id="PRfZIbXaIdRjIJlZ7YdW-16" value="Да" style="edgeLabel;html=1;align=center;verticalAlign=middle;resizable=0;points=[];" parent="PRfZIbXaIdRjIJlZ7YdW-15" vertex="1" connectable="0">
          <mxGeometry x="0.2667" y="-1" relative="1" as="geometry">
            <mxPoint x="-54" y="-20" as="offset" />
          </mxGeometry>
        </mxCell>
        <mxCell id="PRfZIbXaIdRjIJlZ7YdW-25" value="Закончить цикл&lt;br&gt;" style="shape=loopLimit;whiteSpace=wrap;html=1;rotation=-180;" parent="1" vertex="1">
          <mxGeometry x="375" y="2460" width="145" height="90" as="geometry" />
        </mxCell>
        <mxCell id="PRfZIbXaIdRjIJlZ7YdW-27" value="Стоп" style="strokeWidth=2;html=1;shape=mxgraph.flowchart.terminator;whiteSpace=wrap;" parent="1" vertex="1">
          <mxGeometry x="397.5" y="2620" width="100" height="60" as="geometry" />
        </mxCell>
        <mxCell id="PRfZIbXaIdRjIJlZ7YdW-28" value="" style="edgeStyle=segmentEdgeStyle;endArrow=classic;html=1;exitX=0.5;exitY=0;exitDx=0;exitDy=0;" parent="1" source="PRfZIbXaIdRjIJlZ7YdW-25" target="PRfZIbXaIdRjIJlZ7YdW-27" edge="1">
          <mxGeometry width="50" height="50" relative="1" as="geometry">
            <mxPoint x="367.5" y="2410" as="sourcePoint" />
            <mxPoint x="417.5" y="2360" as="targetPoint" />
          </mxGeometry>
        </mxCell>
        <mxCell id="jrfhhCZjt7rrwdPi8S2I-1" value="Создать указатель на массив *char длиной 1" style="rounded=0;whiteSpace=wrap;html=1;" vertex="1" parent="1">
          <mxGeometry x="330" y="110" width="120" height="60" as="geometry" />
        </mxCell>
        <mxCell id="jrfhhCZjt7rrwdPi8S2I-2" value="Создать переменную &quot;емкость хранилища&quot; &lt;br&gt;равной 1" style="rounded=0;whiteSpace=wrap;html=1;" vertex="1" parent="1">
          <mxGeometry x="330" y="190" width="120" height="70" as="geometry" />
        </mxCell>
        <mxCell id="jrfhhCZjt7rrwdPi8S2I-3" value="Создать переменную &quot;количество хранимых символов&quot;&lt;br&gt;равной 0" style="rounded=0;whiteSpace=wrap;html=1;" vertex="1" parent="1">
          <mxGeometry x="330" y="280" width="120" height="70" as="geometry" />
        </mxCell>
        <mxCell id="jrfhhCZjt7rrwdPi8S2I-4" value="Считать из буфера следующий символ в&amp;nbsp;&lt;br&gt;переменную&lt;br&gt;&quot;следующий символ&quot;" style="shape=parallelogram;perimeter=parallelogramPerimeter;whiteSpace=wrap;html=1;fixedSize=1;" vertex="1" parent="1">
          <mxGeometry x="315" y="460" width="150" height="80" as="geometry" />
        </mxCell>
        <mxCell id="jrfhhCZjt7rrwdPi8S2I-6" value="Создать переменную char&lt;br&gt;&quot;следующий символ&quot;" style="rounded=0;whiteSpace=wrap;html=1;" vertex="1" parent="1">
          <mxGeometry x="330" y="370" width="120" height="60" as="geometry" />
        </mxCell>
        <mxCell id="jrfhhCZjt7rrwdPi8S2I-7" value="&lt;span&gt;&quot;следующий символ&quot;&lt;br&gt;является символом&lt;br&gt;перевода строки&lt;br&gt;&lt;/span&gt;" style="html=1;whiteSpace=wrap;aspect=fixed;shape=isoRectangle;" vertex="1" parent="1">
          <mxGeometry x="290" y="690" width="200" height="120" as="geometry" />
        </mxCell>
        <mxCell id="jrfhhCZjt7rrwdPi8S2I-8" value="Создать переменную&lt;br&gt;&quot;требуется считать следующий символ&quot;&lt;br&gt;равной НЕТ" style="rounded=0;whiteSpace=wrap;html=1;" vertex="1" parent="1">
          <mxGeometry x="325" y="570" width="130" height="80" as="geometry" />
        </mxCell>
        <mxCell id="jrfhhCZjt7rrwdPi8S2I-9" value="&lt;span&gt;Переменную&lt;/span&gt;&lt;br&gt;&lt;span&gt;&quot;требуется считать следующий символ&quot;&lt;/span&gt;&lt;br&gt;&lt;span&gt;назначить равной НЕТ&lt;/span&gt;" style="rounded=0;whiteSpace=wrap;html=1;" vertex="1" parent="1">
          <mxGeometry x="510" y="810" width="130" height="90" as="geometry" />
        </mxCell>
        <mxCell id="jrfhhCZjt7rrwdPi8S2I-10" value="&lt;span&gt;Переменную&lt;/span&gt;&lt;br&gt;&lt;span&gt;&quot;требуется считать следующий символ&quot;&lt;/span&gt;&lt;br&gt;&lt;span&gt;назначить равной ДА&lt;/span&gt;" style="rounded=0;whiteSpace=wrap;html=1;" vertex="1" parent="1">
          <mxGeometry x="140" y="820" width="130" height="80" as="geometry" />
        </mxCell>
        <mxCell id="jrfhhCZjt7rrwdPi8S2I-11" value="" style="edgeStyle=segmentEdgeStyle;endArrow=classic;html=1;entryX=0.5;entryY=0;entryDx=0;entryDy=0;" edge="1" parent="1" target="jrfhhCZjt7rrwdPi8S2I-9">
          <mxGeometry width="50" height="50" relative="1" as="geometry">
            <mxPoint x="490" y="751" as="sourcePoint" />
            <mxPoint x="370" y="640" as="targetPoint" />
          </mxGeometry>
        </mxCell>
        <mxCell id="jrfhhCZjt7rrwdPi8S2I-12" value="Да" style="edgeLabel;html=1;align=center;verticalAlign=middle;resizable=0;points=[];" vertex="1" connectable="0" parent="jrfhhCZjt7rrwdPi8S2I-11">
          <mxGeometry x="-0.0972" y="-2" relative="1" as="geometry">
            <mxPoint x="-15" y="-13" as="offset" />
          </mxGeometry>
        </mxCell>
        <mxCell id="jrfhhCZjt7rrwdPi8S2I-13" value="" style="edgeStyle=segmentEdgeStyle;endArrow=classic;html=1;entryX=0.5;entryY=0;entryDx=0;entryDy=0;exitX=-0.01;exitY=0.492;exitDx=0;exitDy=0;exitPerimeter=0;" edge="1" parent="1" source="jrfhhCZjt7rrwdPi8S2I-7" target="jrfhhCZjt7rrwdPi8S2I-10">
          <mxGeometry width="50" height="50" relative="1" as="geometry">
            <mxPoint x="270" y="790" as="sourcePoint" />
            <mxPoint x="370" y="640" as="targetPoint" />
          </mxGeometry>
        </mxCell>
        <mxCell id="jrfhhCZjt7rrwdPi8S2I-14" value="Нет" style="edgeLabel;html=1;align=center;verticalAlign=middle;resizable=0;points=[];" vertex="1" connectable="0" parent="jrfhhCZjt7rrwdPi8S2I-13">
          <mxGeometry x="-0.1818" y="2" relative="1" as="geometry">
            <mxPoint x="25" y="-11.01" as="offset" />
          </mxGeometry>
        </mxCell>
        <mxCell id="jrfhhCZjt7rrwdPi8S2I-15" value="" style="edgeStyle=segmentEdgeStyle;endArrow=classic;html=1;exitX=0.5;exitY=1;exitDx=0;exitDy=0;entryX=0.5;entryY=0;entryDx=0;entryDy=0;entryPerimeter=0;" edge="1" parent="1" source="jrfhhCZjt7rrwdPi8S2I-10" target="PRfZIbXaIdRjIJlZ7YdW-3">
          <mxGeometry width="50" height="50" relative="1" as="geometry">
            <mxPoint x="320" y="790" as="sourcePoint" />
            <mxPoint x="370" y="740" as="targetPoint" />
            <Array as="points">
              <mxPoint x="205" y="970" />
              <mxPoint x="430" y="970" />
            </Array>
          </mxGeometry>
        </mxCell>
        <mxCell id="jrfhhCZjt7rrwdPi8S2I-16" value="" style="edgeStyle=segmentEdgeStyle;endArrow=classic;html=1;exitX=0.5;exitY=1;exitDx=0;exitDy=0;" edge="1" parent="1" source="jrfhhCZjt7rrwdPi8S2I-9" target="PRfZIbXaIdRjIJlZ7YdW-3">
          <mxGeometry width="50" height="50" relative="1" as="geometry">
            <mxPoint x="320" y="790" as="sourcePoint" />
            <mxPoint x="370" y="740" as="targetPoint" />
            <Array as="points">
              <mxPoint x="575" y="970" />
              <mxPoint x="430" y="970" />
            </Array>
          </mxGeometry>
        </mxCell>
        <mxCell id="jrfhhCZjt7rrwdPi8S2I-19" value="Записать символ из&amp;nbsp;&lt;br&gt;переменной&lt;br&gt;&quot;следующий символ&quot;&lt;br&gt;в массив по индексу&amp;nbsp;&lt;br&gt;переменную &quot;количество хранимых символов&quot;" style="shape=parallelogram;perimeter=parallelogramPerimeter;whiteSpace=wrap;html=1;fixedSize=1;" vertex="1" parent="1">
          <mxGeometry x="351.5" y="1590" width="185" height="110" as="geometry" />
        </mxCell>
        <mxCell id="jrfhhCZjt7rrwdPi8S2I-20" value="" style="edgeStyle=segmentEdgeStyle;endArrow=classic;html=1;exitX=0;exitY=0.5;exitDx=0;exitDy=0;entryX=0.5;entryY=0;entryDx=0;entryDy=0;" edge="1" parent="1" source="PRfZIbXaIdRjIJlZ7YdW-6" target="jrfhhCZjt7rrwdPi8S2I-19">
          <mxGeometry width="50" height="50" relative="1" as="geometry">
            <mxPoint x="320" y="1460" as="sourcePoint" />
            <mxPoint x="370" y="1410" as="targetPoint" />
            <Array as="points">
              <mxPoint x="230" y="1230" />
              <mxPoint x="230" y="1480" />
              <mxPoint x="443" y="1480" />
            </Array>
          </mxGeometry>
        </mxCell>
        <mxCell id="jrfhhCZjt7rrwdPi8S2I-21" value="Нет" style="edgeLabel;html=1;align=center;verticalAlign=middle;resizable=0;points=[];" vertex="1" connectable="0" parent="jrfhhCZjt7rrwdPi8S2I-20">
          <mxGeometry x="-0.8389" y="-2" relative="1" as="geometry">
            <mxPoint x="8" y="-8" as="offset" />
          </mxGeometry>
        </mxCell>
        <mxCell id="jrfhhCZjt7rrwdPi8S2I-22" value="" style="edgeStyle=segmentEdgeStyle;endArrow=classic;html=1;exitX=0.554;exitY=1.018;exitDx=0;exitDy=0;exitPerimeter=0;entryX=0.5;entryY=0;entryDx=0;entryDy=0;" edge="1" parent="1" source="PRfZIbXaIdRjIJlZ7YdW-13" target="jrfhhCZjt7rrwdPi8S2I-19">
          <mxGeometry width="50" height="50" relative="1" as="geometry">
            <mxPoint x="500" y="1450" as="sourcePoint" />
            <mxPoint x="370" y="1410" as="targetPoint" />
            <Array as="points">
              <mxPoint x="662" y="1480" />
              <mxPoint x="444" y="1480" />
            </Array>
          </mxGeometry>
        </mxCell>
        <mxCell id="jrfhhCZjt7rrwdPi8S2I-23" value="&lt;span&gt;Увеличить переменную &quot;количество хранимых символов&quot;&lt;/span&gt;&lt;br&gt;на 1" style="rounded=0;whiteSpace=wrap;html=1;" vertex="1" parent="1">
          <mxGeometry x="382" y="1770" width="124" height="80" as="geometry" />
        </mxCell>
        <mxCell id="jrfhhCZjt7rrwdPi8S2I-24" value="Считать из буфера следующий символ в&amp;nbsp;&lt;br&gt;переменную&lt;br&gt;&quot;следующий символ&quot;" style="shape=parallelogram;perimeter=parallelogramPerimeter;whiteSpace=wrap;html=1;fixedSize=1;" vertex="1" parent="1">
          <mxGeometry x="369" y="1910" width="150" height="80" as="geometry" />
        </mxCell>
        <mxCell id="jrfhhCZjt7rrwdPi8S2I-25" value="&lt;span&gt;&quot;следующий символ&quot;&lt;br&gt;является символом&lt;br&gt;перевода строки&lt;br&gt;&lt;/span&gt;" style="html=1;whiteSpace=wrap;aspect=fixed;shape=isoRectangle;" vertex="1" parent="1">
          <mxGeometry x="340" y="2070" width="200" height="120" as="geometry" />
        </mxCell>
        <mxCell id="jrfhhCZjt7rrwdPi8S2I-26" value="&lt;span&gt;Переменную&lt;/span&gt;&lt;br&gt;&lt;span&gt;&quot;требуется считать следующий символ&quot;&lt;/span&gt;&lt;br&gt;&lt;span&gt;назначить равной НЕТ&lt;/span&gt;" style="rounded=0;whiteSpace=wrap;html=1;" vertex="1" parent="1">
          <mxGeometry x="560" y="2190" width="130" height="90" as="geometry" />
        </mxCell>
        <mxCell id="jrfhhCZjt7rrwdPi8S2I-27" value="&lt;span&gt;Переменную&lt;/span&gt;&lt;br&gt;&lt;span&gt;&quot;требуется считать следующий символ&quot;&lt;/span&gt;&lt;br&gt;&lt;span&gt;назначить равной ДА&lt;/span&gt;" style="rounded=0;whiteSpace=wrap;html=1;" vertex="1" parent="1">
          <mxGeometry x="190" y="2200" width="130" height="80" as="geometry" />
        </mxCell>
        <mxCell id="jrfhhCZjt7rrwdPi8S2I-28" value="" style="edgeStyle=segmentEdgeStyle;endArrow=classic;html=1;entryX=0.5;entryY=0;entryDx=0;entryDy=0;" edge="1" target="jrfhhCZjt7rrwdPi8S2I-26" parent="1">
          <mxGeometry width="50" height="50" relative="1" as="geometry">
            <mxPoint x="540" y="2131" as="sourcePoint" />
            <mxPoint x="420" y="2020" as="targetPoint" />
          </mxGeometry>
        </mxCell>
        <mxCell id="jrfhhCZjt7rrwdPi8S2I-29" value="Да" style="edgeLabel;html=1;align=center;verticalAlign=middle;resizable=0;points=[];" vertex="1" connectable="0" parent="jrfhhCZjt7rrwdPi8S2I-28">
          <mxGeometry x="-0.0972" y="-2" relative="1" as="geometry">
            <mxPoint x="-15" y="-13" as="offset" />
          </mxGeometry>
        </mxCell>
        <mxCell id="jrfhhCZjt7rrwdPi8S2I-30" value="" style="edgeStyle=segmentEdgeStyle;endArrow=classic;html=1;entryX=0.5;entryY=0;entryDx=0;entryDy=0;exitX=-0.01;exitY=0.492;exitDx=0;exitDy=0;exitPerimeter=0;" edge="1" source="jrfhhCZjt7rrwdPi8S2I-25" target="jrfhhCZjt7rrwdPi8S2I-27" parent="1">
          <mxGeometry width="50" height="50" relative="1" as="geometry">
            <mxPoint x="320" y="2170" as="sourcePoint" />
            <mxPoint x="420" y="2020" as="targetPoint" />
          </mxGeometry>
        </mxCell>
        <mxCell id="jrfhhCZjt7rrwdPi8S2I-31" value="Нет" style="edgeLabel;html=1;align=center;verticalAlign=middle;resizable=0;points=[];" vertex="1" connectable="0" parent="jrfhhCZjt7rrwdPi8S2I-30">
          <mxGeometry x="-0.1818" y="2" relative="1" as="geometry">
            <mxPoint x="25" y="-11.01" as="offset" />
          </mxGeometry>
        </mxCell>
        <mxCell id="jrfhhCZjt7rrwdPi8S2I-34" value="" style="edgeStyle=segmentEdgeStyle;endArrow=classic;html=1;exitX=0.5;exitY=1;exitDx=0;exitDy=0;" edge="1" parent="1" source="jrfhhCZjt7rrwdPi8S2I-27" target="PRfZIbXaIdRjIJlZ7YdW-25">
          <mxGeometry width="50" height="50" relative="1" as="geometry">
            <mxPoint x="320" y="2410" as="sourcePoint" />
            <mxPoint x="370" y="2360" as="targetPoint" />
            <Array as="points">
              <mxPoint x="255" y="2360" />
              <mxPoint x="448" y="2360" />
            </Array>
          </mxGeometry>
        </mxCell>
        <mxCell id="jrfhhCZjt7rrwdPi8S2I-35" value="" style="edgeStyle=segmentEdgeStyle;endArrow=classic;html=1;exitX=0.5;exitY=1;exitDx=0;exitDy=0;" edge="1" parent="1" source="jrfhhCZjt7rrwdPi8S2I-26" target="PRfZIbXaIdRjIJlZ7YdW-25">
          <mxGeometry width="50" height="50" relative="1" as="geometry">
            <mxPoint x="320" y="2410" as="sourcePoint" />
            <mxPoint x="370" y="2360" as="targetPoint" />
            <Array as="points">
              <mxPoint x="625" y="2360" />
              <mxPoint x="448" y="2360" />
            </Array>
          </mxGeometry>
        </mxCell>
        <mxCell id="jrfhhCZjt7rrwdPi8S2I-36" value="" style="endArrow=classic;html=1;exitX=0.5;exitY=1;exitDx=0;exitDy=0;" edge="1" parent="1" source="jrfhhCZjt7rrwdPi8S2I-24" target="jrfhhCZjt7rrwdPi8S2I-25">
          <mxGeometry width="50" height="50" relative="1" as="geometry">
            <mxPoint x="320" y="2310" as="sourcePoint" />
            <mxPoint x="370" y="2260" as="targetPoint" />
          </mxGeometry>
        </mxCell>
        <mxCell id="jrfhhCZjt7rrwdPi8S2I-37" value="" style="endArrow=classic;html=1;exitX=0.5;exitY=1;exitDx=0;exitDy=0;entryX=0.5;entryY=0;entryDx=0;entryDy=0;" edge="1" parent="1" source="jrfhhCZjt7rrwdPi8S2I-23" target="jrfhhCZjt7rrwdPi8S2I-24">
          <mxGeometry width="50" height="50" relative="1" as="geometry">
            <mxPoint x="320" y="2010" as="sourcePoint" />
            <mxPoint x="370" y="1960" as="targetPoint" />
          </mxGeometry>
        </mxCell>
        <mxCell id="jrfhhCZjt7rrwdPi8S2I-38" value="" style="endArrow=classic;html=1;exitX=0.5;exitY=1;exitDx=0;exitDy=0;entryX=0.5;entryY=0;entryDx=0;entryDy=0;" edge="1" parent="1" source="jrfhhCZjt7rrwdPi8S2I-19" target="jrfhhCZjt7rrwdPi8S2I-23">
          <mxGeometry width="50" height="50" relative="1" as="geometry">
            <mxPoint x="320" y="1710" as="sourcePoint" />
            <mxPoint x="370" y="1660" as="targetPoint" />
          </mxGeometry>
        </mxCell>
        <mxCell id="jrfhhCZjt7rrwdPi8S2I-39" value="" style="endArrow=classic;html=1;exitX=0.5;exitY=1;exitDx=0;exitDy=0;" edge="1" parent="1" source="jrfhhCZjt7rrwdPi8S2I-8" target="jrfhhCZjt7rrwdPi8S2I-7">
          <mxGeometry width="50" height="50" relative="1" as="geometry">
            <mxPoint x="320" y="810" as="sourcePoint" />
            <mxPoint x="370" y="760" as="targetPoint" />
          </mxGeometry>
        </mxCell>
        <mxCell id="jrfhhCZjt7rrwdPi8S2I-40" value="" style="endArrow=classic;html=1;exitX=0.5;exitY=1;exitDx=0;exitDy=0;" edge="1" parent="1" source="jrfhhCZjt7rrwdPi8S2I-4" target="jrfhhCZjt7rrwdPi8S2I-8">
          <mxGeometry width="50" height="50" relative="1" as="geometry">
            <mxPoint x="320" y="810" as="sourcePoint" />
            <mxPoint x="370" y="760" as="targetPoint" />
          </mxGeometry>
        </mxCell>
        <mxCell id="jrfhhCZjt7rrwdPi8S2I-41" value="" style="endArrow=classic;html=1;exitX=0.5;exitY=1;exitDx=0;exitDy=0;" edge="1" parent="1" source="jrfhhCZjt7rrwdPi8S2I-6">
          <mxGeometry width="50" height="50" relative="1" as="geometry">
            <mxPoint x="320" y="510" as="sourcePoint" />
            <mxPoint x="390" y="457" as="targetPoint" />
          </mxGeometry>
        </mxCell>
        <mxCell id="jrfhhCZjt7rrwdPi8S2I-42" value="" style="endArrow=classic;html=1;entryX=0.5;entryY=0;entryDx=0;entryDy=0;exitX=0.5;exitY=1;exitDx=0;exitDy=0;" edge="1" parent="1" source="jrfhhCZjt7rrwdPi8S2I-3" target="jrfhhCZjt7rrwdPi8S2I-6">
          <mxGeometry width="50" height="50" relative="1" as="geometry">
            <mxPoint x="320" y="410" as="sourcePoint" />
            <mxPoint x="370" y="360" as="targetPoint" />
          </mxGeometry>
        </mxCell>
        <mxCell id="jrfhhCZjt7rrwdPi8S2I-43" value="" style="endArrow=classic;html=1;entryX=0.5;entryY=0;entryDx=0;entryDy=0;" edge="1" parent="1" source="jrfhhCZjt7rrwdPi8S2I-2" target="jrfhhCZjt7rrwdPi8S2I-3">
          <mxGeometry width="50" height="50" relative="1" as="geometry">
            <mxPoint x="320" y="410" as="sourcePoint" />
            <mxPoint x="370" y="360" as="targetPoint" />
          </mxGeometry>
        </mxCell>
        <mxCell id="jrfhhCZjt7rrwdPi8S2I-46" value="" style="endArrow=classic;html=1;entryX=0.5;entryY=0;entryDx=0;entryDy=0;" edge="1" parent="1" source="jrfhhCZjt7rrwdPi8S2I-1" target="jrfhhCZjt7rrwdPi8S2I-2">
          <mxGeometry width="50" height="50" relative="1" as="geometry">
            <mxPoint x="320" y="410" as="sourcePoint" />
            <mxPoint x="370" y="360" as="targetPoint" />
          </mxGeometry>
        </mxCell>
        <mxCell id="jrfhhCZjt7rrwdPi8S2I-47" value="" style="endArrow=classic;html=1;entryX=0.5;entryY=0;entryDx=0;entryDy=0;" edge="1" parent="1" source="PRfZIbXaIdRjIJlZ7YdW-1" target="jrfhhCZjt7rrwdPi8S2I-1">
          <mxGeometry width="50" height="50" relative="1" as="geometry">
            <mxPoint x="320" y="410" as="sourcePoint" />
            <mxPoint x="370" y="360" as="targetPoint" />
          </mxGeometry>
        </mxCell>
      </root>
    </mxGraphModel>
  </diagram>
</mxfile>
